<mxfile host="65bd71144e">
    <diagram id="9VVwYhCY6KmQplv8iv8Y" name="Page-1">
        <mxGraphModel dx="1246" dy="687" grid="0" gridSize="10" guides="1" tooltips="1" connect="1" arrows="1" fold="1" page="1" pageScale="1" pageWidth="1350" pageHeight="1020" math="0" shadow="0">
            <root>
                <mxCell id="0"/>
                <mxCell id="1" parent="0"/>
                <mxCell id="2" value="AWS Cloud" style="points=[[0,0],[0.25,0],[0.5,0],[0.75,0],[1,0],[1,0.25],[1,0.5],[1,0.75],[1,1],[0.75,1],[0.5,1],[0.25,1],[0,1],[0,0.75],[0,0.5],[0,0.25]];outlineConnect=0;gradientColor=none;html=1;whiteSpace=wrap;fontSize=12;fontStyle=0;container=1;pointerEvents=0;collapsible=0;recursiveResize=0;shape=mxgraph.aws4.group;grIcon=mxgraph.aws4.group_aws_cloud_alt;strokeColor=#232F3E;fillColor=none;verticalAlign=top;align=left;spacingLeft=30;fontColor=#232F3E;dashed=0;" parent="1" vertex="1">
                    <mxGeometry x="159" y="33" width="1158" height="957" as="geometry"/>
                </mxCell>
                <mxCell id="3" value="Private Subnet" style="points=[[0,0],[0.25,0],[0.5,0],[0.75,0],[1,0],[1,0.25],[1,0.5],[1,0.75],[1,1],[0.75,1],[0.5,1],[0.25,1],[0,1],[0,0.75],[0,0.5],[0,0.25]];outlineConnect=0;gradientColor=none;html=1;whiteSpace=wrap;fontSize=12;fontStyle=0;container=1;pointerEvents=0;collapsible=0;recursiveResize=0;shape=mxgraph.aws4.group;grIcon=mxgraph.aws4.group_vpc2;strokeColor=#8C4FFF;fillColor=none;verticalAlign=top;align=left;spacingLeft=30;fontColor=#AAB7B8;dashed=0;" parent="2" vertex="1">
                    <mxGeometry x="206" y="51" width="900" height="847" as="geometry"/>
                </mxCell>
                <mxCell id="6" value="" style="rounded=0;whiteSpace=wrap;html=1;strokeColor=#FF8000;" parent="3" vertex="1">
                    <mxGeometry x="374" y="33" width="486" height="440" as="geometry"/>
                </mxCell>
                <mxCell id="9" value="" style="sketch=0;points=[[0,0,0],[0.25,0,0],[0.5,0,0],[0.75,0,0],[1,0,0],[0,1,0],[0.25,1,0],[0.5,1,0],[0.75,1,0],[1,1,0],[0,0.25,0],[0,0.5,0],[0,0.75,0],[1,0.25,0],[1,0.5,0],[1,0.75,0]];outlineConnect=0;fontColor=#232F3E;fillColor=#ED7100;strokeColor=#ffffff;dashed=0;verticalLabelPosition=bottom;verticalAlign=top;align=center;html=1;fontSize=12;fontStyle=0;aspect=fixed;shape=mxgraph.aws4.resourceIcon;resIcon=mxgraph.aws4.eks;" parent="3" vertex="1">
                    <mxGeometry x="374" y="33" width="36" height="36" as="geometry"/>
                </mxCell>
                <mxCell id="10" value="EKS Layer" style="text;html=1;align=center;verticalAlign=middle;whiteSpace=wrap;rounded=0;fontColor=#999999;" parent="3" vertex="1">
                    <mxGeometry x="399" y="36" width="98" height="30" as="geometry"/>
                </mxCell>
                <mxCell id="15" value="" style="rounded=0;whiteSpace=wrap;html=1;dashed=1;strokeColor=#FF0000;" parent="3" vertex="1">
                    <mxGeometry x="399" y="85" width="438" height="72" as="geometry"/>
                </mxCell>
                <mxCell id="16" value="" style="rounded=0;whiteSpace=wrap;html=1;dashed=1;strokeColor=#FF0000;" parent="3" vertex="1">
                    <mxGeometry x="399" y="180" width="438" height="70" as="geometry"/>
                </mxCell>
                <mxCell id="17" value="" style="rounded=0;whiteSpace=wrap;html=1;dashed=1;strokeColor=#FF0000;" parent="3" vertex="1">
                    <mxGeometry x="399" y="273" width="438" height="173" as="geometry"/>
                </mxCell>
                <mxCell id="18" value="istio-namespace" style="text;html=1;align=center;verticalAlign=middle;whiteSpace=wrap;rounded=0;fontColor=#999999;" parent="3" vertex="1">
                    <mxGeometry x="741" y="61" width="103" height="30" as="geometry"/>
                </mxCell>
                <mxCell id="20" value="backoffice-namespace" style="text;html=1;align=center;verticalAlign=middle;whiteSpace=wrap;rounded=0;fontColor=#999999;" parent="3" vertex="1">
                    <mxGeometry x="707" y="246" width="133" height="30" as="geometry"/>
                </mxCell>
                <mxCell id="21" value="&lt;font style=&quot;font-size: 10px; color: rgb(153, 153, 153);&quot;&gt;istiod-xxx&lt;/font&gt;" style="aspect=fixed;sketch=0;html=1;dashed=0;whitespace=wrap;verticalLabelPosition=bottom;verticalAlign=top;fillColor=#2875E2;strokeColor=#ffffff;points=[[0.005,0.63,0],[0.1,0.2,0],[0.9,0.2,0],[0.5,0,0],[0.995,0.63,0],[0.72,0.99,0],[0.5,1,0],[0.28,0.99,0]];shape=mxgraph.kubernetes.icon2;kubernetesLabel=1;prIcon=pod" parent="3" vertex="1">
                    <mxGeometry x="425.23" y="91" width="39.06" height="37.5" as="geometry"/>
                </mxCell>
                <mxCell id="22" value="&lt;font style=&quot;font-size: 10px; color: rgb(153, 153, 153);&quot;&gt;istio-ingressgateway&lt;/font&gt;" style="aspect=fixed;sketch=0;html=1;dashed=0;whitespace=wrap;verticalLabelPosition=bottom;verticalAlign=top;fillColor=#2875E2;strokeColor=#ffffff;points=[[0.005,0.63,0],[0.1,0.2,0],[0.9,0.2,0],[0.5,0,0],[0.995,0.63,0],[0.72,0.99,0],[0.5,1,0],[0.28,0.99,0]];shape=mxgraph.kubernetes.icon2;kubernetesLabel=1;prIcon=pod" parent="3" vertex="1">
                    <mxGeometry x="534" y="91" width="39.06" height="37.5" as="geometry"/>
                </mxCell>
                <mxCell id="23" value="&lt;font style=&quot;font-size: 10px; color: rgb(153, 153, 153);&quot;&gt;istio-egressgateway&lt;/font&gt;" style="aspect=fixed;sketch=0;html=1;dashed=0;whitespace=wrap;verticalLabelPosition=bottom;verticalAlign=top;fillColor=#2875E2;strokeColor=#ffffff;points=[[0.005,0.63,0],[0.1,0.2,0],[0.9,0.2,0],[0.5,0,0],[0.995,0.63,0],[0.72,0.99,0],[0.5,1,0],[0.28,0.99,0]];shape=mxgraph.kubernetes.icon2;kubernetesLabel=1;prIcon=pod" parent="3" vertex="1">
                    <mxGeometry x="643" y="91" width="39.06" height="37.5" as="geometry"/>
                </mxCell>
                <mxCell id="24" value="&lt;font style=&quot;font-size: 10px; color: rgb(153, 153, 153);&quot;&gt;istio-system&lt;/font&gt;" style="aspect=fixed;sketch=0;html=1;dashed=0;whitespace=wrap;verticalLabelPosition=bottom;verticalAlign=top;fillColor=#2875E2;strokeColor=#ffffff;points=[[0.005,0.63,0],[0.1,0.2,0],[0.9,0.2,0],[0.5,0,0],[0.995,0.63,0],[0.72,0.99,0],[0.5,1,0],[0.28,0.99,0]];shape=mxgraph.kubernetes.icon2;kubernetesLabel=1;prIcon=pod" parent="3" vertex="1">
                    <mxGeometry x="752" y="91" width="39.06" height="37.5" as="geometry"/>
                </mxCell>
                <mxCell id="iXjx3yn9qDSkRat33fYd-24" value="" style="rounded=0;whiteSpace=wrap;html=1;strokeColor=#FF8000;" parent="3" vertex="1">
                    <mxGeometry x="375" y="517" width="486" height="295" as="geometry"/>
                </mxCell>
                <mxCell id="iXjx3yn9qDSkRat33fYd-25" value="" style="sketch=0;points=[[0,0,0],[0.25,0,0],[0.5,0,0],[0.75,0,0],[1,0,0],[0,1,0],[0.25,1,0],[0.5,1,0],[0.75,1,0],[1,1,0],[0,0.25,0],[0,0.5,0],[0,0.75,0],[1,0.25,0],[1,0.5,0],[1,0.75,0]];outlineConnect=0;fontColor=#232F3E;fillColor=#ED7100;strokeColor=#ffffff;dashed=0;verticalLabelPosition=bottom;verticalAlign=top;align=center;html=1;fontSize=12;fontStyle=0;aspect=fixed;shape=mxgraph.aws4.resourceIcon;resIcon=mxgraph.aws4.lambda;" parent="3" vertex="1">
                    <mxGeometry x="375" y="517" width="34" height="34" as="geometry"/>
                </mxCell>
                <mxCell id="iXjx3yn9qDSkRat33fYd-26" value="Serverless Layer" style="text;html=1;align=center;verticalAlign=middle;whiteSpace=wrap;rounded=0;fontColor=#999999;" parent="3" vertex="1">
                    <mxGeometry x="404.53" y="519" width="130.47" height="30" as="geometry"/>
                </mxCell>
                <mxCell id="iXjx3yn9qDSkRat33fYd-27" value="apg-serverless" style="sketch=0;points=[[0,0,0],[0.25,0,0],[0.5,0,0],[0.75,0,0],[1,0,0],[0,1,0],[0.25,1,0],[0.5,1,0],[0.75,1,0],[1,1,0],[0,0.25,0],[0,0.5,0],[0,0.75,0],[1,0.25,0],[1,0.5,0],[1,0.75,0]];outlineConnect=0;fontColor=#232F3E;fillColor=#8C4FFF;strokeColor=#ffffff;dashed=0;verticalLabelPosition=bottom;verticalAlign=top;align=center;html=1;fontSize=12;fontStyle=0;aspect=fixed;shape=mxgraph.aws4.resourceIcon;resIcon=mxgraph.aws4.api_gateway;" parent="3" vertex="1">
                    <mxGeometry x="81" y="570" width="64" height="64" as="geometry"/>
                </mxCell>
                <mxCell id="iXjx3yn9qDSkRat33fYd-28" value="&lt;font style=&quot;font-size: 10px; color: rgb(153, 153, 153);&quot;&gt;MS Identity&lt;/font&gt;" style="aspect=fixed;sketch=0;html=1;dashed=0;whitespace=wrap;verticalLabelPosition=bottom;verticalAlign=top;fillColor=#2875E2;strokeColor=#ffffff;points=[[0.005,0.63,0],[0.1,0.2,0],[0.9,0.2,0],[0.5,0,0],[0.995,0.63,0],[0.72,0.99,0],[0.5,1,0],[0.28,0.99,0]];shape=mxgraph.kubernetes.icon2;kubernetesLabel=1;prIcon=pod" parent="3" vertex="1">
                    <mxGeometry x="425.23" y="187" width="39.06" height="37.5" as="geometry"/>
                </mxCell>
                <mxCell id="iXjx3yn9qDSkRat33fYd-29" value="&lt;font style=&quot;font-size: 10px; color: rgb(153, 153, 153);&quot;&gt;MS User&lt;/font&gt;" style="aspect=fixed;sketch=0;html=1;dashed=0;whitespace=wrap;verticalLabelPosition=bottom;verticalAlign=top;fillColor=#2875E2;strokeColor=#ffffff;points=[[0.005,0.63,0],[0.1,0.2,0],[0.9,0.2,0],[0.5,0,0],[0.995,0.63,0],[0.72,0.99,0],[0.5,1,0],[0.28,0.99,0]];shape=mxgraph.kubernetes.icon2;kubernetesLabel=1;prIcon=pod" parent="3" vertex="1">
                    <mxGeometry x="534" y="187" width="39.06" height="37.5" as="geometry"/>
                </mxCell>
                <mxCell id="iXjx3yn9qDSkRat33fYd-30" value="&lt;font style=&quot;font-size: 10px; color: rgb(153, 153, 153);&quot;&gt;MS Wallet&lt;/font&gt;" style="aspect=fixed;sketch=0;html=1;dashed=0;whitespace=wrap;verticalLabelPosition=bottom;verticalAlign=top;fillColor=#2875E2;strokeColor=#ffffff;points=[[0.005,0.63,0],[0.1,0.2,0],[0.9,0.2,0],[0.5,0,0],[0.995,0.63,0],[0.72,0.99,0],[0.5,1,0],[0.28,0.99,0]];shape=mxgraph.kubernetes.icon2;kubernetesLabel=1;prIcon=pod" parent="3" vertex="1">
                    <mxGeometry x="643" y="187" width="39.06" height="37.5" as="geometry"/>
                </mxCell>
                <mxCell id="iXjx3yn9qDSkRat33fYd-31" value="&lt;font style=&quot;font-size: 10px; color: rgb(153, 153, 153);&quot;&gt;MS Security&lt;/font&gt;" style="aspect=fixed;sketch=0;html=1;dashed=0;whitespace=wrap;verticalLabelPosition=bottom;verticalAlign=top;fillColor=#2875E2;strokeColor=#ffffff;points=[[0.005,0.63,0],[0.1,0.2,0],[0.9,0.2,0],[0.5,0,0],[0.995,0.63,0],[0.72,0.99,0],[0.5,1,0],[0.28,0.99,0]];shape=mxgraph.kubernetes.icon2;kubernetesLabel=1;prIcon=pod" parent="3" vertex="1">
                    <mxGeometry x="425.23" y="286" width="39.06" height="37.5" as="geometry"/>
                </mxCell>
                <mxCell id="iXjx3yn9qDSkRat33fYd-32" value="&lt;font style=&quot;font-size: 10px; color: rgb(153, 153, 153);&quot;&gt;MS Config&lt;/font&gt;" style="aspect=fixed;sketch=0;html=1;dashed=0;whitespace=wrap;verticalLabelPosition=bottom;verticalAlign=top;fillColor=#2875E2;strokeColor=#ffffff;points=[[0.005,0.63,0],[0.1,0.2,0],[0.9,0.2,0],[0.5,0,0],[0.995,0.63,0],[0.72,0.99,0],[0.5,1,0],[0.28,0.99,0]];shape=mxgraph.kubernetes.icon2;kubernetesLabel=1;prIcon=pod" parent="3" vertex="1">
                    <mxGeometry x="425.23" y="374" width="39.06" height="37.5" as="geometry"/>
                </mxCell>
                <mxCell id="iXjx3yn9qDSkRat33fYd-33" value="&lt;font style=&quot;font-size: 10px; color: rgb(153, 153, 153);&quot;&gt;MS Campaign&lt;/font&gt;" style="aspect=fixed;sketch=0;html=1;dashed=0;whitespace=wrap;verticalLabelPosition=bottom;verticalAlign=top;fillColor=#2875E2;strokeColor=#ffffff;points=[[0.005,0.63,0],[0.1,0.2,0],[0.9,0.2,0],[0.5,0,0],[0.995,0.63,0],[0.72,0.99,0],[0.5,1,0],[0.28,0.99,0]];shape=mxgraph.kubernetes.icon2;kubernetesLabel=1;prIcon=pod" parent="3" vertex="1">
                    <mxGeometry x="534" y="286" width="39.06" height="37.5" as="geometry"/>
                </mxCell>
                <mxCell id="iXjx3yn9qDSkRat33fYd-34" value="&lt;font style=&quot;font-size: 10px; color: rgb(153, 153, 153);&quot;&gt;MS Activity&lt;/font&gt;" style="aspect=fixed;sketch=0;html=1;dashed=0;whitespace=wrap;verticalLabelPosition=bottom;verticalAlign=top;fillColor=#2875E2;strokeColor=#ffffff;points=[[0.005,0.63,0],[0.1,0.2,0],[0.9,0.2,0],[0.5,0,0],[0.995,0.63,0],[0.72,0.99,0],[0.5,1,0],[0.28,0.99,0]];shape=mxgraph.kubernetes.icon2;kubernetesLabel=1;prIcon=pod" parent="3" vertex="1">
                    <mxGeometry x="534" y="374" width="39.06" height="37.5" as="geometry"/>
                </mxCell>
                <mxCell id="iXjx3yn9qDSkRat33fYd-35" value="&lt;font style=&quot;font-size: 10px; color: rgb(153, 153, 153);&quot;&gt;MS Payments&lt;/font&gt;" style="aspect=fixed;sketch=0;html=1;dashed=0;whitespace=wrap;verticalLabelPosition=bottom;verticalAlign=top;fillColor=#2875E2;strokeColor=#ffffff;points=[[0.005,0.63,0],[0.1,0.2,0],[0.9,0.2,0],[0.5,0,0],[0.995,0.63,0],[0.72,0.99,0],[0.5,1,0],[0.28,0.99,0]];shape=mxgraph.kubernetes.icon2;kubernetesLabel=1;prIcon=pod" parent="3" vertex="1">
                    <mxGeometry x="643" y="286" width="39.06" height="37.5" as="geometry"/>
                </mxCell>
                <mxCell id="iXjx3yn9qDSkRat33fYd-36" value="&lt;font style=&quot;font-size: 10px; color: rgb(153, 153, 153);&quot;&gt;MS Notification&lt;/font&gt;" style="aspect=fixed;sketch=0;html=1;dashed=0;whitespace=wrap;verticalLabelPosition=bottom;verticalAlign=top;fillColor=#2875E2;strokeColor=#ffffff;points=[[0.005,0.63,0],[0.1,0.2,0],[0.9,0.2,0],[0.5,0,0],[0.995,0.63,0],[0.72,0.99,0],[0.5,1,0],[0.28,0.99,0]];shape=mxgraph.kubernetes.icon2;kubernetesLabel=1;prIcon=pod" parent="3" vertex="1">
                    <mxGeometry x="752" y="286" width="39.06" height="37.5" as="geometry"/>
                </mxCell>
                <mxCell id="iXjx3yn9qDSkRat33fYd-39" value="" style="rounded=0;whiteSpace=wrap;html=1;dashed=1;strokeColor=#FF0000;" parent="3" vertex="1">
                    <mxGeometry x="403" y="570" width="435" height="211" as="geometry"/>
                </mxCell>
                <mxCell id="iXjx3yn9qDSkRat33fYd-40" value="notifications" style="text;html=1;align=center;verticalAlign=middle;whiteSpace=wrap;rounded=0;fontColor=#999999;" parent="3" vertex="1">
                    <mxGeometry x="752" y="540" width="88" height="30" as="geometry"/>
                </mxCell>
                <mxCell id="iXjx3yn9qDSkRat33fYd-41" value="" style="endArrow=classic;html=1;rounded=1;exitX=1;exitY=0.5;exitDx=0;exitDy=0;exitPerimeter=0;entryX=0;entryY=0.5;entryDx=0;entryDy=0;curved=0;strokeColor=#808080;dashed=1;" parent="3" source="iXjx3yn9qDSkRat33fYd-27" target="iXjx3yn9qDSkRat33fYd-39" edge="1">
                    <mxGeometry width="50" height="50" relative="1" as="geometry">
                        <mxPoint x="372" y="438" as="sourcePoint"/>
                        <mxPoint x="422" y="388" as="targetPoint"/>
                        <Array as="points">
                            <mxPoint x="219" y="602"/>
                            <mxPoint x="219" y="676"/>
                        </Array>
                    </mxGeometry>
                </mxCell>
                <mxCell id="iXjx3yn9qDSkRat33fYd-42" value="lambda-cognito-authorizer" style="sketch=0;points=[[0,0,0],[0.25,0,0],[0.5,0,0],[0.75,0,0],[1,0,0],[0,1,0],[0.25,1,0],[0.5,1,0],[0.75,1,0],[1,1,0],[0,0.25,0],[0,0.5,0],[0,0.75,0],[1,0.25,0],[1,0.5,0],[1,0.75,0]];outlineConnect=0;fontColor=#232F3E;fillColor=#ED7100;strokeColor=#ffffff;dashed=0;verticalLabelPosition=bottom;verticalAlign=top;align=center;html=1;fontSize=12;fontStyle=0;aspect=fixed;shape=mxgraph.aws4.resourceIcon;resIcon=mxgraph.aws4.lambda;" parent="3" vertex="1">
                    <mxGeometry x="84.5" y="374" width="57" height="57" as="geometry"/>
                </mxCell>
                <mxCell id="iXjx3yn9qDSkRat33fYd-44" value="" style="endArrow=classic;startArrow=classic;html=1;rounded=0;exitX=0.5;exitY=0;exitDx=0;exitDy=0;exitPerimeter=0;entryX=0.5;entryY=1;entryDx=0;entryDy=0;entryPerimeter=0;strokeColor=#808080;dashed=1;" parent="3" edge="1">
                    <mxGeometry width="50" height="50" relative="1" as="geometry">
                        <mxPoint x="112.38" y="570" as="sourcePoint"/>
                        <mxPoint x="112.38" y="456" as="targetPoint"/>
                    </mxGeometry>
                </mxCell>
                <mxCell id="iXjx3yn9qDSkRat33fYd-45" value="Cognito" style="sketch=0;points=[[0,0,0],[0.25,0,0],[0.5,0,0],[0.75,0,0],[1,0,0],[0,1,0],[0.25,1,0],[0.5,1,0],[0.75,1,0],[1,1,0],[0,0.25,0],[0,0.5,0],[0,0.75,0],[1,0.25,0],[1,0.5,0],[1,0.75,0]];outlineConnect=0;fontColor=#232F3E;fillColor=#DD344C;strokeColor=#ffffff;dashed=0;verticalLabelPosition=bottom;verticalAlign=top;align=center;html=1;fontSize=12;fontStyle=0;aspect=fixed;shape=mxgraph.aws4.resourceIcon;resIcon=mxgraph.aws4.cognito;" parent="3" vertex="1">
                    <mxGeometry x="246" y="374" width="57" height="57" as="geometry"/>
                </mxCell>
                <mxCell id="iXjx3yn9qDSkRat33fYd-46" value="" style="endArrow=classic;startArrow=classic;html=1;rounded=0;exitX=1;exitY=0.5;exitDx=0;exitDy=0;exitPerimeter=0;entryX=0;entryY=0.5;entryDx=0;entryDy=0;entryPerimeter=0;strokeColor=#808080;dashed=1;" parent="3" source="iXjx3yn9qDSkRat33fYd-42" target="iXjx3yn9qDSkRat33fYd-45" edge="1">
                    <mxGeometry width="50" height="50" relative="1" as="geometry">
                        <mxPoint x="363" y="438" as="sourcePoint"/>
                        <mxPoint x="413" y="388" as="targetPoint"/>
                    </mxGeometry>
                </mxCell>
                <mxCell id="19" value="mobile-namespace" style="text;html=1;align=center;verticalAlign=middle;whiteSpace=wrap;rounded=0;fontColor=#B3B3B3;" parent="3" vertex="1">
                    <mxGeometry x="725" y="155" width="115" height="30" as="geometry"/>
                </mxCell>
                <mxCell id="iXjx3yn9qDSkRat33fYd-48" value="VPC" style="points=[[0,0],[0.25,0],[0.5,0],[0.75,0],[1,0],[1,0.25],[1,0.5],[1,0.75],[1,1],[0.75,1],[0.5,1],[0.25,1],[0,1],[0,0.75],[0,0.5],[0,0.25]];outlineConnect=0;gradientColor=none;html=1;whiteSpace=wrap;fontSize=12;fontStyle=0;container=1;pointerEvents=0;collapsible=0;recursiveResize=0;shape=mxgraph.aws4.group;grIcon=mxgraph.aws4.group_vpc2;strokeColor=#8C4FFF;fillColor=none;verticalAlign=top;align=left;spacingLeft=30;fontColor=#AAB7B8;dashed=0;" parent="2" vertex="1">
                    <mxGeometry x="178" y="25" width="955" height="900" as="geometry"/>
                </mxCell>
                <mxCell id="11" value="apg-microservices" style="sketch=0;points=[[0,0,0],[0.25,0,0],[0.5,0,0],[0.75,0,0],[1,0,0],[0,1,0],[0.25,1,0],[0.5,1,0],[0.75,1,0],[1,1,0],[0,0.25,0],[0,0.5,0],[0,0.75,0],[1,0.25,0],[1,0.5,0],[1,0.75,0]];outlineConnect=0;fontColor=#232F3E;fillColor=#8C4FFF;strokeColor=#ffffff;dashed=0;verticalLabelPosition=bottom;verticalAlign=top;align=center;html=1;fontSize=12;fontStyle=0;aspect=fixed;shape=mxgraph.aws4.resourceIcon;resIcon=mxgraph.aws4.api_gateway;" parent="iXjx3yn9qDSkRat33fYd-48" vertex="1">
                    <mxGeometry x="109" y="235" width="64" height="64" as="geometry"/>
                </mxCell>
                <mxCell id="28" value="&lt;font style=&quot;font-size: 10px; color: rgb(153, 153, 153);&quot;&gt;MS Gateway&lt;/font&gt;" style="aspect=fixed;sketch=0;html=1;dashed=0;whitespace=wrap;verticalLabelPosition=bottom;verticalAlign=top;fillColor=#d5e8d4;strokeColor=#82b366;points=[[0.005,0.63,0],[0.1,0.2,0],[0.9,0.2,0],[0.5,0,0],[0.995,0.63,0],[0.72,0.99,0],[0.5,1,0],[0.28,0.99,0]];shape=mxgraph.kubernetes.icon2;kubernetesLabel=1;prIcon=pod" vertex="1" parent="iXjx3yn9qDSkRat33fYd-48">
                    <mxGeometry x="670" y="400" width="39.06" height="37.5" as="geometry"/>
                </mxCell>
                <mxCell id="29" style="edgeStyle=none;html=1;entryX=0.005;entryY=0.63;entryDx=0;entryDy=0;entryPerimeter=0;" edge="1" parent="iXjx3yn9qDSkRat33fYd-48" source="11" target="28">
                    <mxGeometry relative="1" as="geometry"/>
                </mxCell>
                <mxCell id="27" value="lam_params_mobile_services" style="sketch=0;points=[[0,0,0],[0.25,0,0],[0.5,0,0],[0.75,0,0],[1,0,0],[0,1,0],[0.25,1,0],[0.5,1,0],[0.75,1,0],[1,1,0],[0,0.25,0],[0,0.5,0],[0,0.75,0],[1,0.25,0],[1,0.5,0],[1,0.75,0]];outlineConnect=0;fontColor=#232F3E;fillColor=#ED7100;strokeColor=#ffffff;dashed=0;verticalLabelPosition=bottom;verticalAlign=top;align=center;html=1;fontSize=12;fontStyle=0;aspect=fixed;shape=mxgraph.aws4.resourceIcon;resIcon=mxgraph.aws4.lambda;" parent="iXjx3yn9qDSkRat33fYd-48" vertex="1">
                    <mxGeometry x="742" y="614" width="60" height="60" as="geometry"/>
                </mxCell>
                <mxCell id="iXjx3yn9qDSkRat33fYd-38" value="lam_coto_prepare_notification" style="sketch=0;points=[[0,0,0],[0.25,0,0],[0.5,0,0],[0.75,0,0],[1,0,0],[0,1,0],[0.25,1,0],[0.5,1,0],[0.75,1,0],[1,1,0],[0,0.25,0],[0,0.5,0],[0,0.75,0],[1,0.25,0],[1,0.5,0],[1,0.75,0]];outlineConnect=0;fontColor=#232F3E;fillColor=#ED7100;strokeColor=#ffffff;dashed=0;verticalLabelPosition=bottom;verticalAlign=top;align=center;html=1;fontSize=12;fontStyle=0;aspect=fixed;shape=mxgraph.aws4.resourceIcon;resIcon=mxgraph.aws4.lambda;" parent="iXjx3yn9qDSkRat33fYd-48" vertex="1">
                    <mxGeometry x="504" y="614" width="60" height="60" as="geometry"/>
                </mxCell>
                <mxCell id="iXjx3yn9qDSkRat33fYd-49" value="Certificate&lt;br&gt;Manager" style="sketch=0;points=[[0,0,0],[0.25,0,0],[0.5,0,0],[0.75,0,0],[1,0,0],[0,1,0],[0.25,1,0],[0.5,1,0],[0.75,1,0],[1,1,0],[0,0.25,0],[0,0.5,0],[0,0.75,0],[1,0.25,0],[1,0.5,0],[1,0.75,0]];outlineConnect=0;fontColor=#232F3E;fillColor=#DD344C;strokeColor=#ffffff;dashed=0;verticalLabelPosition=bottom;verticalAlign=top;align=center;html=1;fontSize=12;fontStyle=0;aspect=fixed;shape=mxgraph.aws4.resourceIcon;resIcon=mxgraph.aws4.certificate_manager_3;" parent="2" vertex="1">
                    <mxGeometry x="61.5" y="66" width="70" height="70" as="geometry"/>
                </mxCell>
                <mxCell id="iXjx3yn9qDSkRat33fYd-50" value="Route53" style="sketch=0;points=[[0,0,0],[0.25,0,0],[0.5,0,0],[0.75,0,0],[1,0,0],[0,1,0],[0.25,1,0],[0.5,1,0],[0.75,1,0],[1,1,0],[0,0.25,0],[0,0.5,0],[0,0.75,0],[1,0.25,0],[1,0.5,0],[1,0.75,0]];outlineConnect=0;fontColor=#232F3E;fillColor=#8C4FFF;strokeColor=#ffffff;dashed=0;verticalLabelPosition=bottom;verticalAlign=top;align=center;html=1;fontSize=12;fontStyle=0;aspect=fixed;shape=mxgraph.aws4.resourceIcon;resIcon=mxgraph.aws4.route_53;" parent="2" vertex="1">
                    <mxGeometry x="63" y="258.5" width="67" height="67" as="geometry"/>
                </mxCell>
                <mxCell id="iXjx3yn9qDSkRat33fYd-51" value="" style="endArrow=none;html=1;rounded=0;entryX=0.5;entryY=1;entryDx=0;entryDy=0;entryPerimeter=0;exitX=0.5;exitY=0;exitDx=0;exitDy=0;exitPerimeter=0;dashed=1;strokeColor=#808080;" parent="2" source="iXjx3yn9qDSkRat33fYd-50" target="iXjx3yn9qDSkRat33fYd-49" edge="1">
                    <mxGeometry width="50" height="50" relative="1" as="geometry">
                        <mxPoint x="520" y="437" as="sourcePoint"/>
                        <mxPoint x="570" y="387" as="targetPoint"/>
                    </mxGeometry>
                </mxCell>
                <mxCell id="iXjx3yn9qDSkRat33fYd-52" value="" style="endArrow=classic;html=1;rounded=0;exitX=1;exitY=0.5;exitDx=0;exitDy=0;exitPerimeter=0;entryX=0;entryY=0.5;entryDx=0;entryDy=0;entryPerimeter=0;strokeColor=#808080;dashed=1;" parent="2" source="iXjx3yn9qDSkRat33fYd-50" target="11" edge="1">
                    <mxGeometry width="50" height="50" relative="1" as="geometry">
                        <mxPoint x="520" y="437" as="sourcePoint"/>
                        <mxPoint x="570" y="387" as="targetPoint"/>
                    </mxGeometry>
                </mxCell>
                <mxCell id="iXjx3yn9qDSkRat33fYd-53" value="" style="endArrow=classic;html=1;rounded=1;exitX=0.5;exitY=1;exitDx=0;exitDy=0;exitPerimeter=0;entryX=0;entryY=0.5;entryDx=0;entryDy=0;entryPerimeter=0;curved=0;dashed=1;strokeColor=#808080;" parent="2" source="iXjx3yn9qDSkRat33fYd-50" target="iXjx3yn9qDSkRat33fYd-27" edge="1">
                    <mxGeometry width="50" height="50" relative="1" as="geometry">
                        <mxPoint x="618" y="420" as="sourcePoint"/>
                        <mxPoint x="668" y="370" as="targetPoint"/>
                        <Array as="points">
                            <mxPoint x="95" y="653"/>
                        </Array>
                    </mxGeometry>
                </mxCell>
                <mxCell id="iXjx3yn9qDSkRat33fYd-37" value="" style="endArrow=classic;html=1;rounded=1;exitX=1;exitY=0.5;exitDx=0;exitDy=0;exitPerimeter=0;entryX=0;entryY=0.5;entryDx=0;entryDy=0;curved=0;dashed=1;strokeColor=#808080;" parent="2" source="11" target="15" edge="1">
                    <mxGeometry width="50" height="50" relative="1" as="geometry">
                        <mxPoint x="578" y="489" as="sourcePoint"/>
                        <mxPoint x="628" y="439" as="targetPoint"/>
                        <Array as="points">
                            <mxPoint x="410" y="292"/>
                            <mxPoint x="410" y="172"/>
                        </Array>
                    </mxGeometry>
                </mxCell>
                <mxCell id="iXjx3yn9qDSkRat33fYd-43" value="" style="endArrow=classic;startArrow=classic;html=1;rounded=0;exitX=0.5;exitY=0;exitDx=0;exitDy=0;exitPerimeter=0;entryX=0.5;entryY=1;entryDx=0;entryDy=0;entryPerimeter=0;strokeColor=#808080;dashed=1;" parent="2" source="iXjx3yn9qDSkRat33fYd-42" target="11" edge="1">
                    <mxGeometry width="50" height="50" relative="1" as="geometry">
                        <mxPoint x="578" y="489" as="sourcePoint"/>
                        <mxPoint x="628" y="439" as="targetPoint"/>
                        <Array as="points">
                            <mxPoint x="319" y="378"/>
                        </Array>
                    </mxGeometry>
                </mxCell>
                <mxCell id="30" style="edgeStyle=none;html=1;" edge="1" parent="2" source="28" target="iXjx3yn9qDSkRat33fYd-36">
                    <mxGeometry relative="1" as="geometry"/>
                </mxCell>
                <mxCell id="31" value="" style="endArrow=classic;html=1;exitX=0.1;exitY=0.2;exitDx=0;exitDy=0;exitPerimeter=0;entryX=0.995;entryY=0.63;entryDx=0;entryDy=0;entryPerimeter=0;" edge="1" parent="2" source="28" target="iXjx3yn9qDSkRat33fYd-31">
                    <mxGeometry width="50" height="50" relative="1" as="geometry">
                        <mxPoint x="785" y="396" as="sourcePoint"/>
                        <mxPoint x="835" y="346" as="targetPoint"/>
                    </mxGeometry>
                </mxCell>
                <mxCell id="iXjx3yn9qDSkRat33fYd-54" value="User" style="shape=umlActor;verticalLabelPosition=bottom;verticalAlign=top;html=1;outlineConnect=0;" parent="1" vertex="1">
                    <mxGeometry x="62" y="295" width="30" height="60" as="geometry"/>
                </mxCell>
                <mxCell id="iXjx3yn9qDSkRat33fYd-55" value="" style="endArrow=classic;html=1;rounded=0;exitX=0.5;exitY=0.5;exitDx=0;exitDy=0;exitPerimeter=0;entryX=0;entryY=0.5;entryDx=0;entryDy=0;entryPerimeter=0;dashed=1;strokeColor=#808080;" parent="1" source="iXjx3yn9qDSkRat33fYd-54" target="iXjx3yn9qDSkRat33fYd-50" edge="1">
                    <mxGeometry width="50" height="50" relative="1" as="geometry">
                        <mxPoint x="777" y="453" as="sourcePoint"/>
                        <mxPoint x="827" y="403" as="targetPoint"/>
                    </mxGeometry>
                </mxCell>
                <mxCell id="eJ9uiz1r65bh74XL4NcA-26" value="" style="shape=image;verticalLabelPosition=bottom;labelBackgroundColor=default;verticalAlign=top;aspect=fixed;imageAspect=0;image=data:image/png,iVBORw0KGgoAAAANSUhEUgAAAz4AAADvCAMAAAAEn/H9AAABF1BMVEVHcEx1dXa6urqqq6uzs7TAwMGJiYqrrK2PkJGVlZaRkZJ2dnfGx8diYmO9vb7Ly8yhoaG9vb5vb3Bvb3CJioqsrK2pqamTk5S5ublwcHGCgoONjo5MTEyZmZqBgoJPT0/Ozs7DxMSwsLCoqKhQUFCoqKjLy8u6uruZmZqcnJxNTU0AuOPV1dWRkZFsbGzZ2dl2dnZ+fn7Dw8MAiqqqqqrQ0NDJyckyxunHx8eZmZnNzc2Kioq1tbXf3t7j4+Ofn5+kpKW/v7+FhYW9vb1wcHCurq65ubljY2OxsbHT09NMSUhqampZWVkMnL4TuuIFr9Ynv+NBWV7B1NiWztxPxN85bnpyyd4lk609p7+qydBtscEWfpeMv8rGmZVwAAAAKnRSTlMAU7uYUzgTIAc6oJu8NHvJsp5rv3Rtzsnt47jj4IjZpu3t6fCA3+Pc4vXaZsfkAAAzGUlEQVR42uzbD0/aWhjH8XZCW5yAU5g3Wtfkivcmp5JtipnbdNk/jTZR5N51LGPv/3Xcc1pQ29KC3oF68v2clhH6kBKzJ+f0BzUAAAAAAAAAAAAAAAAAAAAAAAAAAAAAAAAAAAAAAAAAAAAAAAAAAAAAAAAAAAAAAAAAYCaslitmxW1ZBqCxqjfL9qkagL6clpidIGgZgL5WXDFLnukYgKYsT8yWx9UPdGWZrpgtt8r0A01VXTFjgUd6AD1ZK2Lm3BbTD7RkemL2mH6gJccTc+ASXkNHMw2tSQ+gNcubU/uwfIN2HFPMR+Dy3Sl0U3XF7BFeQ0tOS8wH6QH0Y3piTgivoRvHE3Pkelz9QB+W6Yq5IbyGXqqeuIHlG/CwfuyWRHgNbZiemCfCa2jEablirgivoQ/TFXNGegBdWJ64By73bUMDjumKe8HVDx6/4tA6SCssnr6a8Bo6mBRa91KKi8Owd3OIXNy3DR0UhtaBCAcJe7IlgtzqsP8jKRQB0w/05RQv3XqDvYTz80EQ5LVaMOhevrnp8kcYFKYHBvCIFecGQS/cS+r65728YtE79y8u3ySEPcJraKvqFbZPONhL8v3uIHdBNuj6fqp9CpZv3LeNR84yRZHM0k32h5x+gpxqdfQi3T+iiEv74PGqTsgN0u3jK4Ox/RP0+l1fuph6+uGnb3jUrJY79eSjdH3lfHweEEZHs9NPLyC8ho5M75a5QawvgjG5Qd+PdC/eJBFeQ0sTQ+uc9jnPpgdBMBgdzaYHgcjBfdt4tG4fWo9kw2sVWg9108u3vggIr6EblRsEeXJyg1g37AUJcW4QGxte52L5lsuxbLtSlkNutm0Z98Oy7MqIbfEr+Ssr4g65gZJND4Lw5tFuJrwORIGHdN/2Q/kojuNYlWZz4fnQZrNpOZIxV+pTmI3NxbXY+majYcvXHsof6V6Zq68LvAr38iYfpf/qdWL0/SvZ8PrysyyRu6wbPahdnUV5sdjMV3GMoXJppFZSykYBVZ5Rto0hOz6aVYv2a81SwvCcjl1Ks41JCt6TLVV9s729NdLZ2t6WryxvlqypzmDKvVKSxf9HpaH6ZmNjo92Ot7Z8Ll9ZXDTv3kB2xUyoWFN/RZliTSpfMVOqtvHblBcOT76cjCcP/OxnvjG96efhzfLDX9/8a9nw+tsvVXR4eCqHpB7iJ7E/6vX632pTD6mxVLMMxarVU5ZKjpHLri3Vl4Z1V+q10TtqSzni6ifXIyX+L28/e5L2bEI3O3YtLnx+PRZK4wqjSWercyr/OsfHnWOloxyfHn/cXl5o5nZdc2E5tqZ2Ne7eP1alIZun3X4rtd+2h95G2htrchqqGHdRXVyX1tavNZzp3vh0dXV1PRrxtr5iTS5PeWr8Ls6znQ8F/vmZv3RTvh8ly7/7udOP8u9R1ssrR2pPjWiT48Nf8fxTru98GJ7zKH7TuyW7oHt2ds7OduTD/v7+2Zna5HhZd4xY/Ui+lNjisf9uX+4Hu7sHEfnkU2w3cnDyJOqS8hd5JOFgt2YbRZzan59OIocjJ6cLRpolJ54t2TedlI+dj5JqouPtzcr4C6HlqNk6qlLVyyeb9l0vuhprbdUoOVQLLapPcVt24337vfJ55P2LylT9s6IWLWq7+mfVLDjP06h8VP3163/tnQtbGsm2hkGb7kKEoIIGDMRL1Dgbo+EIWzHGK45uJ4ljrs7J//8dp1YV1asuTVUTO/Ocya6vm24urdnPfnznW+urqobp1avs8LmxwHP89rtuPioen+5VFN7ev1cv0PD58nHXFP3j7nDBn+8YHW9ORxyfHrt8dxeQGAwGvRULPnNwBVO/f9AfaXAwG+PT6SeKEXNBdcZ1IfkzvDvCJ9qCV4qunlZyNoVrwn6pp1wzvVmsG1fVN9b3kwRM8AfV+mKdJOHDPjyJdXoy/WMWUZxZ3kmhpdrE/NSAGMrOa0nNKBU+e6oAn7HchQvADoiSswfggG6zc5/C3DGFZBw9x/ffrKXb+4+7upV8eW8t374ksEM3gc947a5I+DAJMiz4zG12VHwAjP4ACiwbPpQdqrOLKwoK8vNGImiETxhsHdCLcKeUdecKtmJy+voK6lVASOiNbljhdHWDGsg4fARA9AXtgsIkfPaBHsSnWvwheMB5kJKjnWSBA00KUIvbzmtF5UnwQY3Hp7wg2IENdsrO7e3lfGYZb3BDKRlLz67R+ahsfBL0oO5Z94PSu5+PHR0foAfx6fVS4QPO06eyuU9Y2UTzid1n0J/l9CA+GjuCHpBpP4gPaKoL2MjqblnshwRPKTywM3y4/SwWVMIKdVq27aNM+xE7lHD1YpjgPoIctv8IPlFthoKRShSypVaRTEJm08Tn/DUy6MTnkj8ure4TlcS1IGY+t1SNUmbJQTQnUDEejAV7bnCX1Mp8ubN2P5/ux8IDz1PjQ+nhVIzFh1RWBpIAH3gcPMHLER+VnTNhPlfIzxXazxvEp74F1ykOdLCF/4BJ9AWQA6Jn7j1r9UjpN+qLyI6DHnhxvRiERMeHs/Pj7kOiGJ5D2N0ELRXD1ACRmWWk5xx2pmY+HT6XCIXNfUKgh0N2yU+MnlcL2eXtlQ5HJQmgY3dugOaDcqUHqv3wxn5y9+kBELCPx6eyOUjAp/OkkLPh0x0JgNHsRw4ZtwqC0QN+HRz5uft0eiw/lTWRN9JNmI9ydXERmh47PwIhJpplAx0GPhJCE/c+YbC0vTOZIEPIpVX76PxINR/2vJZp71NqUGSEXoEYPaUwl5WiJxgSaAISHuzm8wnMx9Dbj3f27ufh2PAeVMrep8fxYTpIxIcET250fOjemw1yJj6YFzBh7YYAARiop1MCwsLUFaDFAYKNaivIJYrQi4EebH6GQy03CKr7Qyc94rDPt/31aqDiI2yHHSaPDoqtpVHTczgRP/m0IzfLR1i6oY5KYSp80H8ux7tPVGoANbCBOD2/U3rKuawUgvlw9xFnsQM+LvOB3MAUDa/f2+1Hjg0S8OmlwWfA8Rnb+4SF2RUDn4NBfzPIjcEHyzaOj9TSaOUbKMYnqj/twqV4+dVZf0x4HU6vxbkB3VkufT0dymOJi2/2HWLwsCMa0JAWcBI+DJsfT96i1ssTuS5Lh9H5zlGzSNJ1PudMWLqNyrh2jbjxwYKM78n4hPOIDeLz6tVCOcMR012GDSKEL0GThdao+ztHeqDCM7n79Dg9fXZMxieYHbCLUIBIb7USafggOwo8ZzEMUv1mRAc8vGZXyd3P2ZjwurAmmh448nhgoy7H1evDfadG1CBH8M56oOIj9h/AJ5p5eYK4pBQM4RwdLafyn/y5aT6coGaYrve5lJWIz3zjFepydLi9XIB/IOvcIHYf2Xx2HaH1nWQ+u+yA4bWjfBt1PzedH8VnBATd0H10egxB34P06Ph0VV2gJHxQiA8JtrrCfEQR152KEud3sJYnNh+GSj3MCUV1Gle76ZHZwU5osZ7sPqeT4lNsvYTKDWODtPiAlmppMj2kR0OoHbnxubxkLIjCLBEfMr/ArhI7HNil5Vx2qtxIdiMdeW5gC61BIrSGkz28fm+G12g+ulIUbzcDNJ9k94nUyk1cv4n0ID48bdPEcwOj/THcBxTOnTHzEeyw9KAS5gzVt66lzI1Pwtko4ucYuaVwH/QgEcDFIFaV5ADxmZQeAyI3PjtLeeI0nybig7Vb2ux6ngOBSsAnzC9o1/ADzE/ITOEcwhMfuPmkCK1x/o07PTDDa0wNLPZjw8fa+xQqK52BqQOkB/Hh8Jzp9AAGpgHBTBt0H8RidDkCdPa0QEyzP5NSN4BneL2B02kI9j12ITSy+5wON4oE8UF4JsMnpH0P4DOhjmItO/ufmYQRU4FQO+/GB7oYKz4E6EHzESRdNubDXHaaRfNBgODM+HFPdkvQLj+mCK/ReyZ1n01oanqscuMy8CnMwSWaALNCzsRHMx5MrTF6M9MDdB8QqVOwkB04nF0ZqJLpNantGYKoZZCcUHEDCXHhY7gPHNfrEeKD9jMRPmGg03OoRghMphkdoVz5ddhM6nzEOQ0+kAFwJpKLt3IJrQfth0YMWdJDVlR4jvEFGMh3l/nAVRb7sU99e9hF8zGjN7v7DOLWJ9l9ormVm2R6SMJ/QrqGmBsZUm0Jxn1QhS1hPng0wutokVoXCGdQv5Fyg4ItsaYDRPiz+0bvw61Ich+BzcTuU1wCOhICNza/eqaWz+eDfL6G03lMfJbtBVhYa+OQj1K7ncOjVHTiA4M3gJDuPkhPQ7Al+iPmPaUs6Ykqx0bnI0zIbT7vP97HdoNnVEcLr+90ftB7JsZnJc7d+tj7KFN1dtncHA2f2SDJgXvAharV1dWLp1dPL56uXq3SIz3TF+w5vGS62pqLlP8vn9K6DhsgOPbhCuUaFlpfg4YjXeP4ajQ9Fh7K2vrGYpVrcWMdhlUT0oPFuhkdnE4YHRRnTgU+qEPYXy7NtPJFvpCQhMXazMzSsk6PaH+s8XPYRu9JULvmxIeRc8sPJj6kXAJcDDVgwCc7BR2GDDoOPgM5coM75MUs4HapXOH1A+JjAuR0nx6aj+E+wUqvL7ICFAz4mCKzPb1sW52dSiHOBmoK8LlSph88nSM5ScH1KDUQ1kNPa4EUGwwpCYlaX1+crotxnWJ9mhIE1Oj1m5G8wXFC95k5QXoULbUi23TsI4WfdtE2GwjnGyBEkgU1iTt548ZzyxHS8GH0oPeIHSe6ZRtam60Pcw93aI286GdQxzH17cu9BZ+eAx+Ew3SfyiY3HjhKAG0mT4PW8TnoBlEa6fO76lOx/QgP6k6FykxrzAyE9wwxtA4Xh+ApJkHXNFGT/z0S0ldBdX3IAzgs3+qhPu4zce9DgiXR+ByKnb1YrplLesCDZuRBH9TyTGTxN8DH4Aart3aeTILPLcVnnihTdTg8quiAD8llqEpHwwftJ2my2zvnZDf0Hi7bzGvQx3sLPj07Ppi7Gb1P5UmHfcIvEU93n+A4ptV9+t3CD/7XqHvFxAEahdeRlC5sidYF8dnA0q21zs1H4+d6vZq0qJSABw330XyG6+gOWvE2AT5RddvwHmComg/HTu7h+HB4kJ/xCOSXcb5BotrN0DFsegng4EQCxX3Ceeh7dPOBeCEHynyymwERTnazmc84dgCfDl8E+vG93X4eHlW8ISNy8kaCzd3Ru+IECPU2kR5VmeADCrZwNV2cwuEq8miqe8003I/pWcPpOgHONlAsaGPs331Up1NL41nXa9Mkp+EjHCh97xMG22ZmDYnB+B8mtSWgR9fO2PSN1OSpokaAAI922eU+QE1ycB2yT01lTE84t6Jxg5k1VSftZLddAyCUM7y+yaJ46yvuU9hk78blmwCpQnKZuo+psE5XMYDk+Qex/YRza1dQvA0lXVUJ/jCyI582CrZ/sXoqtA94KPic/sCctwBTN2nIdHnG5gakOHOI+KBq1oU+emStvs6HDnwux+FD5oXfKIdXjXIuU0WCHhSu8nGu0P73vUENsgPmw88P1vAa5h6Mkat4U5I3GZ/gCceGSYDU7+Bkg6zdRw2vUaP256lo5yNKD1iPrMW6lBsAMeg67Pn1+rR1BBLm+PDK7VS7sIq2Mwk+tTg3kI/Qx9j5SbKfccy1lo+03MAkqVl04cOzaxMfqNxM7TXggoxD62ODHWE+E6zQNtseFITX9vKtN37ox4kPFGW6+wSzN5waRpY4725iBJax+6h5+daZzA8QdDAaXI0q11dIjxFak2mcrIPWsz5dcDoeK+DWF5GeR8x5iyB2Mxof5yKesLh8ZOIzZu50KJkPVmx6gjDvwodCkoAPycf0oPnAcOl8LlORSo/io/GDjY97spsKjThx40F1nOu2bSOnJj5ziA+WZdj7kOgJvkklCrge/Fzm7mOKTHWvJPGpO3Mhyw3ivBq1VsBVQIvXwnKwelu3rhBF24IBH5Iz8FGza4DAJZzrJnnPsvsHwxryg1oKE62qDeYzXjxTKBEXPli+IT6k3MDRIEkNoCfj0PrYWKGAsVvayW67qvckyBle706Az6YcHaD5xO5DF/j0BDOYufXwviDZuo+piijf3tAHr97OtiI20/pKWA/mBnXJfDaAF0VDtBSbSH1jiPTo7oMmlMZ9qmg+mFin+R8RziRUb8th8kKfI3WFtpZbi2U/k+IjlijwKBsdCHac6JbZTGtMqk3z+aEV2lLTMz49eG+kB73U+PQ6Mj4xJjjuU5hbYczgJ3C+WcH73qQa9zkrPKIk7l5pOruajoAr8B7FfK4XI4JjPli3jfbTN4sFkm6OGgbbevLGRaE4gRLMpWjpdAQNQvRyhuRSKN9MSA+Spu6Uz03zabYBHC27duPzSscHliiApBk92U/V4UVOHFHryQHowTnZzdL0aPr43pUe3KRrfnq9zqoWHQxk9yHR3OYNvEKs+IezVhxIVvhgeI3i6UFAosWLoaY3G9O5WNH6tYAn1hp8PrnM3oeyQwXu454rOnHjg2m0qYQAIKTXGTc4yJf4O3iEZT/Ehg9Iw4eUgR4hMCFBT5R56dYRtRvyw19ZzMdyZze6m+JudG+f+nYHU99s9oP0DG4M9+lj7wPTRHux5YySBaoBDpemdJ+LwmMSmae4oo6vbbjoVoLq2vW+jo80ThPCoA+iw59NFx+FD4JDdYLuYx8ylcDhHtRKPdH0yFQ+waUS7q4T5tta9bb3ulEL3fjQDfEpL6AfIUKXr4CebFVYwTWlCfykC61lhpLZ4Rw8WKe+0fHXlPgMBmbxhu4TkspmL0YKb4vYfRKEuUnc5+xR+JBoyyzfttbWhobW6tLf3vQ6cgMHeNTJ4/ABag6F0uBTfKk2PqCltAyT/PKOdegHh0z15aV56kmUG3x/D9QuOvF5JeHDliiY+ND1ceXM6ZnDTgf9B54wFO4nmuwGD2BFtx0BQadns587ep/F+zTFW8/AB+Np6H0KAX0TuQEdUA1WgR6rdHy6V4VHRZoYXscxAvQ9qq6H8p2sAqX1AUEUnXsUPpydE76lw2f70FjeU4tSp/ZtMzww8ImaO/qA6TnM0CnCM+E9oy/fyBM7PmA/iE+51NDoQV/KWJUV1uXApgUIFIW39+lCawTITAyUP/+eHl6/l+iBl+PSg55qPho+ynqElSeV2V32mhds4r4fB6tzJGcXyQofXLet0YOzdOTYLcqhgnWRGQiGhuv16FH4QFwgCErnPiSIuUF8olxakeaRoVaom0/7SI/ZzkuMvdeK9wBBpciFD/LTKC00LhV40JayVvgE0WGb8J/jdLmBmbihDOOgryxjp3eMx4ddCz5Ij4GPsB9AZkW85LbTpTtsFaQnrfvgKtEfU+WpRg+kAgY9aD5UdaXvAV1vhLlH4iPMJ6375Je0xodqaQJ8am3DffTsIGyeG6F1M88X0PHXI3Tg0KilxQeEjZA24JO55lbi2k0QhPykDq3NwA2rLpWf3YdxU9/u3rOXXwAUEx+dHrN4k5ICuIRXbMx42D7oIwhu98FbI2651/pYfnFUubhAeNhYKWgo6wpCa1R9yBseJGi4SHLZuQ88WkXnOrkYHZzsNgE+kZldL2sE0NkJxvy2Wsh/GD5QvnjkdcmOD0hCxqTn9rKRD3MZi0SbbxEbZEi4j2uF9oPpPB3YTNvhGxwe3ienB6O36dwDJjM8UOjpGfjAATap2+mCOEP9VZxskNZ9zgCfLisMVyyP/lZkaS2fytYDfQ7Qs6+Yj5oG1q9jcIQWH+0+gI04ovu48UEdwqLr9EoYOp3Rbk91LuNzLt8YpHQurIfu/LBQJG580H8Men6K90SVXSRH3qDzSb1CG62HoWOCo7y4/6SlB2g+oA+feiAkSMWnx+jRogPBDSMIdiAGyOGCM35nltN9lLtauwV30bENC4jwmn9/D/gPkzHZDfHB2I2f16czdB/YnfgQwIcCoN7zneTSq2Xgc67ik2/rtRve2GC+LYHDKWqUQic+WL6ZuizlsldwI2UG8gGU/raiInBDUpAc1XzgkLxu+z2GeYMeKBkfQU9Px2cgjAdwAXj4ib+C2CCXRjo+Z4/Fh4RTXWE9FBXmPlr9FhD13ol81AcF03Cych/YXfiAYN3OEWzY/iyR3I/gg9LwMUu31xERy3R40cYtiG9tOz4gGz4YG2QeWqsGhHVYitAaWx1M2KzuA4ek9OBOpvKmZzgQRtaJ7gOKmx1WtPFn8bE/G5EJ3QfRceJjD68vWNcD3iPcBwF6s6+ZT1CFC3DIB/AJMnIfwY+796kv82WjsHOdzOQmUc1MrptqdXhkpNZtEo8bgeFgcABnXPaTEp+fnxvMwhpT9B5BD29gdqF0s5sPBgXwx47I4Ka9w08PZnh9JxP1ndnPQPxOtB80H9l9Vnryt4kALVxIECQHq5UJex+4CWIG+OQKcDfEUeFGN7SffVyhbeBzigBlgw/ohO+p3GcZ6eEedDghPua066b6OaNHuSF8i8RwLXDLkQEqld34jOXnFu7Hm7WOBTroQThw4w6tkR5mF8gJKpGijrlu+07h8uGmJ4T4oPkk9T6cFKGu4AbfxrnTTvdB88kCn1wd6GHwUInsAMRyg2qo0VYdasnBdQb4wGYp3izuwx4Z4KO5jzxkKlLrSJq20BDUoA/lHfgAQJbmpxHlMhbFRsoKhO9QAUK9vzR67lR9uRcX74q/dsN+TIo6LLz+9F7R3XuVpy+Ij2iCbjqYG2i9DyUDKGEb302AulC+BRO5DyxwywSfqDJ8A76D7oO6qkY5031QWRVvVOIAaqVwH+SH+082+OBCH+XuBvqynrAtgcP1ej504mOL3l6Vylnjo3x9j4id2Znu37XU7U6/NY64ttOTii2ZmmSKKD7f3in6oBVzMj7oa0AP6mZV4COHbAgNPhcMDeaiCdzHEbu58UEV195cK+6D/gOT3RQR5j6n2Plkgg8OmVLtpHYfjg6cMnafaEa5OZV5O2vSFO4jf2ucBR9393PbAP6y1C41H9hBzEgEO4CRVry9oyZhfC1PJy7dZAMa1/qI5wCmIvQeo3hDMJEe/hWmKj6860F20Ikwu35SIW73kcZ8ssInnFsDbPTeB3ZYgG1xH0Aoc/fZSd37ADgxQFniUwZ6NCnmQPILghxUyY3PK4v9ZD5pZ+4JHyAFBsQOD37oybk1OMSdfmNd9hOID+v4ARCH+zx8s0YS7x96mgb8JKVr/QMdHylmExwhRoKfKLX7AD2Z4AOKpi4YPNyCJPPZRzDU3ucUH5n0PrH5nAA96d0Hs4OTZnbJW5jXxnxA6v8kUnot+EH7Ca34gGz4UH7CjEdNAR4s2hCeDgbXOGBq2A+ajyQdG9N+/rLfeQSCa1OUHKAm1mBV6n3YLdsRFIGQWr11BwezBaf74JhPRviAWk+l3kegA/fOMXkuAj4IT2bjPrCnL95qS0gPPx9Ohk/LwGcZ7SvfNMxnr1nWsGjv6WrUQjc+lvYn86WmhZVdXrUJ/1EI6qD9vGP4vDe/U74T0zNQOqDxRVxPT/SQHhw21UV9h/GRjM9B94xusQdpToTqDiqRy33QfDLEJ5h+A+RwgobCfBJXYEfT1xwbLN42prNzn3TRASmO8MHk4HApetysg3YL4TzX4XltzEgrlvYMtctOfLD7SQIo43lvUX3luKMtzcFKTvgE/oknpAfY+ZgOlDR6untgMR/Qp5skeA4AET4Ayreegg/wc8bpQWrwKLyov+pcbSrGfCbBxx2JBiN02Cmu3qYT66ZrpXijWq+G2bgPHCgIhxPNeRO9z2Rz3krmlNEYn7B0JCIDePDCjOjK75ly4AO6taZvmd+cVzgO36jkKu77N7U7MeznmN0DFFsfNCDNfhCoB/sk7k8PCXUbgwAASXQfzhZsAJAxYiq/HMwWiN199NiNMudQd8uNTzQt0jdofrjeTEdj8NE0XAwzdJ9U+EQ1BR8gaKIZ18Wmgc9SDVczyO7DZ1Q3SqVSsySpubBnqlR+JD6NUi5TVTbfUlJQHcES2++/o0Ekfqnv/WjElHuEakCy+6D5uHKD70nwgDgfsf30dHy6/ALMCvp9jow6+WAuTOE+Fyi6HsGlIMy5RAobbOwHJMZNtdDaXLAgTtcbUQbuAzrh9LjxIfkdhR/Q8gT4tMxJB/hvYueDE6upGrS7eY3bXoLa8wn4vNLLN8GKyU/2E6/njjscGNypxJn3Ke/iZNlMDxg8hgZmhM2PHaN0c4TWAwqBwAf2ZPehH3GAQCNcVsUzuRPqdYPQ6T5oPmcX0LZnoSnFfQCgjSC5zlvX7209XA/CLIJrOHF+Wu7F2jtC2P4Uc2kVNs3gTdR+JETzwYmhOL/Aptclkvjdpkb4Bo+E2x38/vtto0wytZ9VrNbEE2yBILxW/sQN++FWI5gZ7z8ddnCH1oMk60F8AAmz9zngH4kCDtRfnZ1dFT8tN0WbFZf7wDcungl8CrlMRKbXrtF9mBbH4LOxrwj8p1rMYNgUzSfNvQ5UeJjSNz/h8o6Jj/gsrt2QHJQLnygZn1cmPo2Fho7P76BsJ7+Ryi73HwzfJJ46vW/YnSTaz4D1PnLxhigp9gP7rjO0HpjwID7cY0z3YZ9ydODMCZorFGZ7aD4CoK7tNqNE4CPUzRAfzX2GY9ynUF0X2MDOtB481n0wtd5Jh8+SaT9LafvuqHY0/k47xbZ6H4OJ1CgREx+VH3AZoGe+XG7s3areA3r1Itv0bVOipoMneLD04J39WxUZJ3RLlNL9pAmttbpNxQck+p+ejg/HC3Z2CUASzPZjamKABptzxOI+ONU6e3zkJQvDce4T1fGrsQAduEH1fivKZNJOeveJZpZlfPijlbLuSbpL/LJgL3+O1jMpPbjsR8MHFPPD6Qn5NyzcCniAHqaF+WzHTleO42pNCGnq/4V/4snhtWY5YwZRk3MD/d4J0q+ApkfDRxiQ6T5x+SYM6EmBFUKr8IE6CNTtrRaIxX3AfH6m+8DKH1vvQyJ+m0QOz8kp00Y95T9DiHXSzk7a3icsLh+q9jPZXUbPYUtKDqIS4CPIudybUNi6qPgAJRI+fIA0fAFehNbDdZvt5IPwCeAj1W+wYQanf6f8e91+bpj7ID4aTpL77OqT3f5lhtYIjybsboAfxX1E9yMA64rFcVFldcA9RzkAW8ka4fOT3Wdoc59cBM0PQwe3/SrJpVGxVQ8zcZ8cWQJ8tAZoKZdGtaVzFIPofOeoSEYftik8dP9RlcqJvQ/Sw14DPWzdkMAH6cmcn8qIHyV5iweCcHGoJT1AmQDFpVvHlRvgfIM+0qO7Dztq7gMCzxl9jF86H81i14ME9ecK49xnALHbz3cfKux9NIXV9VNBDxet3tLNPCjOvFwKiNN9UtnIjNn8pBs6jZpH57qOROpNqPnsPUKXjbyBj1m+CcZIvqHCc8uPmc69DucELkryJnT/739RWdIDLXozI2yhv77aQ+v7G2mSgQYPsgNbV8UHwwN2fIJ/mLz94QBhG7RZIWPcZ4BTra8u4CsRsnYf0L7VfUh9cf8E2BEGBGf8qmzrDT62T06qATHwUVJrxMc57c0Y/FkqkjTf72PQA7cPBZHiwqPooazMh0nRgQKQFK6VGpdx4YYUZTv5IFhRzEdgxDkyvlPenPrGajSbA6UKre8eBtj0GBLgCP9R8MHsGrRakK0VazbMEG5w8oHuPtR8YKN6Q3V1nbX7wGZxHxCp8tqN7eLZyXrd6T3VbXAZ/BM33AfMBw6tVN8uh9Ub1m9u8PLnCeYjvl4+bDb2HoXPLc67QXz4LgK4PTmaDkuXMTXI0O0Lkml60HmLRZsy9IPfCmcNr5GUMaJrTAfu0JrDkyCkQ9Rwuvtgdbc6GynB/IFof3Audr87S5Ldp39BsUFdvfkZ7mPrfUCtdeE9ooKDw0bLTQ9oG/lR3AfNJ10GUDPpgak7RddCHw4M22CH885MiKtIKQSPwWevlJy8XQr/acyTHKq8wIlRIXpVynrqm5oZyBylSQ9E2WXxH0do/emjHlab7oMMnR1o7iNmHtAPEB/e/qz0hZvFK+r6Z4lzr8nUAdLjwid798GhH86N0Al/bNhudR3Wq9tifKcahKb7gHYs4z62aaMI0CHlh9hLvnNT7ZpY6POI0ACwo4zsLYRG7wO7gGhPtacw30DjQYgynXtNKpvHnY6aWfPBn+TvlE8Or29sGcLNg24+/1L1BZseXYIN2X4Onqrug5do+JBgdqCuPe3CpauJs3EkfK5/pvsMcdZBkgKBDduED8HwTzgGnigAeLhOTqH/Md2HRs+TuA8pLpv2c3RI67dw3E+ERZhuoLEDK0mLIyKbFJ/LHzcfCKWpu4Sm+yBD+vcohCWjest+8sHs207HiN5w3bbDfj7eWIs3+MCYb5CwQhsoSFafY8MdiGfTMj6cII6P4j4gUlnFUVN+AveaKiS7z5WBT/buM7TMOgAVF2X7wSfrYwK4sPVy+xCF/Y/hPpZxHxOGpYTyDVbu1Mb61WjAB8SO2krSeXjxSHwoH5EZXMeiwQEr3lBk4RaNB5Vp+hY8GTPwA4eU4fUNFm+m3KH1AHt8QxwNgQ5Idx/M3gAfRYVKT0TWkpUlTj4Q+GDxFmWEzxy6D+Bjdx9S3MCRH8WGNqrTgTFNYbr6EtwFdbIN+bXhPjjuE6VbdrCkpwdi4Wgt4RdEraaY6obksEGeeLYorJPjRRgi8doqdV7CCJCyGVxjCYfug+3Pq9h48EmWc69JVDkWyKA68aHnCq8pO1b17aH1+08HUGFZJLNzluw+B/A+ug+qMNul9iUtnDujGiSUb8TEpx6lk9t9KDXoPtbeJ0dy0+toOvSMGp5W60FQLBajKCpSBUFriZJ1qAry61B3nx0B0E61XrQrFF9Or8EzGgfdabfySglHomJ+hrqTSN0UBJpRvEibEQHwCIAa7ZJDWnKgfzn2vNL5ID6yEtuf20zLt8IKLpeDXbEhI7w2F87Zs7eBc7Ib9PMIiyW3hkeS+9ADJm9GNCLD2R35FEzeMd3n4o0iXO9jV4G48QFx+7Emb6Cgui8cB3a5DaLafrlYbbXq1cWl7ROmQ0MwSxvx0cq37ZdLL5dsqoUjQ1HgUUdyasUwDAkVPRVn2nJezWwDDnDCWq8pzRUdtUBt1whMuanUboySRl7FR42uTXzCeYDGUIaTDwgJVt4qtztQ87ebL87w2oJPp+sIrb/Y0AE0GBl4SHafLrqPHo086YsvyeLXMRSnCknucwWuAzvT9dO1VNtU4MYH7cfqPiBS3xCJG4pxxLQtNIYeCsx2lSirTXdgiwna3rHqZU2deC1KstdKntZuN5szM802lZYV8BuEcgGKTGKhT1y8XcICHmcF2cDabYTP3ryMj2Y+CfiQMLn9eRFlO/UN1DFGftKG1xZ9/2qf7PYdh0rdwz7JyRsc0H00Fea6VDiBAdTtwuQD033i8u2KHUAXdIfDmAdoreLCZwji/mPrfXDitYis440KWGE7vObowGaIXrGE+GDuNjrsOLQ8E88cFezogRp9T5RzIB0funGA4jYprDU4PVL1lqIBIfE8hUusz8qq+8jhNeKDImXKjylwscw0t3ksmY88EIThtSU9GFjcxxVaf8e23l68IUGy+/Tl7BrdR1Zhqos3kGe/Cdqf2cB0H2E//JhaWxW3+8S6diRvoHB6nddvXIKjQ6CHGRCcBEyIjUDk5GUL8RFvM+NhT+w6xPt6sGXXSIghkyuOjUgFmmFchrXhNQIEh2aKCLAU20/85dmNkoKP0KVRvOFlDex+hP74/UWW7U/lLeCijvzg6/s7a/n25eN4fDqQG1hDayitrJKmvPETug/0TMJ9MHnTVVjtUqH7MIAOtkKL+/AS7gpjbJvW0uGzPwRh72NTdV9xHxD3Gm458vHQ0HZNSd4AG3QfpwAf5YaHiIlDI0B4Zsa+KluoyD+BR6x8zq2opLoPQLJAtGFTbdzHEJlX5h78AQ+6Pc80vEZ2UAKpm493dvsZG74NXJPdvoMzOOjB2ICf0H1WD0CYXSfjQ4KtHvxgzA/79quruYLuPhdK85O9+wh+Tp34RNNDCtCJ0vgcCstRCDLhOcTgTU/ekB6n+4BCwU9qfPY4J0BPqYz0lMQnmF03yjm3yPxrxGdEUKNMEB9ZtMcBfEyVS7LxcHr+oOl1mOXUt+OOUrXh3aucU9/u/s3TA9N+bpyh9airt0j4Dp5i95kFJgRA6D5JxSn/0QNuPhesb3laj8a5D0CEHGXhPsjOPoUB8LGrCPUbug9wgvZjcR+s3BAfbj5YuLl7HyFS48M56b0nbn6QHrbQB52JF28p7/qZbwt6boXDNEqRNmUUl5QiPorU9gfYgQ0AzkrRCgNFn70j3rPOvMapb+7Q2jQfkI0fQQ3aTz/GB6oygIc9MHlLaH8AHOCUWw+LA86mAs19OD9YtrGnzhLuKg0+CM8J1csg59Q0zw/QfE5AWL4lu8/2SzQPxAe7HpeOoHhT+EF8UloPezRlOkrI1oif1wvpblxanJfM51J8T7bpPoAH4mOaWMOgh54yTN9IsPnWWLrQiVG6caQHHwdJ+MBkN/sKbbyXoR0fxX4OEB+KQ1y+YfJmiASr4ldQeIS6U8RwH+QGNmTIRtBa3Y0PR2d/lD9vpMAnrG/si9EfwER2H0GQaT5VnLJjuo+THRDggwrzS+noUVULlRsnskyBi+PwuplLp/Ieq/eUeHo+lJM3hMfEx5z89geDBw6QXmeHTzj7VrKfjrJRPfxQeP3dsUjuYdS2ONwHhPajuA+8KwDC3sdQVD/rnwE8PIvmW/fpXKj2PnQzzQcB+lF81oEdkKjCoHhzKgqqp8MRPiyONnsfLXk7fdkyFiwANnx3ogM6R3xEft1a3nHSg7YDaioTe0gJczfhPo1a2qpogeEGpVscXi/kZfeBqs2FD7Q/gh9+hC3TO4dURHgNEGnuA+H1e2d4PZh0stt30flQKmy9j2w/mvsIfkDoPgmao051ccFZEDq7CpCfET5XeuvjBGjoxoeCA5uowrYRH0cDtHEKEtAYvY8MD/xavCuPio+LHj6Mw3aBDyqqLU1kPu1SXgWQ0aP6j5iH7VQ438ApByMTapQEPrzlseGD7U/sPezA94UyyW7lwrF6y8QOPGJDur9zTX0z9ZfLfAQidvdBeMzeh7/F7Qd7n8T2py/nAiMTmgr03kce80EnwncNXafCBwTWAw/sfRwiuTrwg0ZjNj9S17ONc3W05G3HSg9HR8jEh0D15e57hIxJ2WUkK87lEDCXQjp0ytnB6q1EBD5IjgMfkm8AOKoybX+CTXXOm7JwwTb1DcdOB1po7c4NxG53H2AEj5r7AF68+7Hhkwtmr4AFFCC0Wgl19+G4JNoPLmhAXafER4ziONzHXMyzODyNqdGbH8TnhHY92I2b7mOv2c5HG+yIjzwrdMYSIEiV2Xm7Vg41C23yD+MjTndLJTr0w7hBgMSiUhjPceKDJeStzs9vf/zxLJ9heH0D6YHqPvjasW4bwuuBjM/Ngd18Pnw6U24COlZS5Wb0PuJ9cB8HPlHlCqSGZmdbFcV91Hk7+AQ5Ms0nLT4ngA+6T0qRoFXdFj2TXMNh5wO/cAa7nkT3SZZAB6Xhg+1/baYNF1vMhz5ptvKRkT3zT5X2Zx6vciq/wKYcoPnATXhDhs/vVnzM9ge5gR30+/MXucwEU9/G6tg1dqqlBzfO0Bpcw62uLopPPeT4nB3E7zHZ8MlFc08v4lk5wolw8sFU/wKEl9AdNzwBggo+1258uPmICFqPDtxLp5devtwGVtT8TTQ/L18utSLrTXrHwIOy4INjqM1229b2tNvQ0RAjNBb4oBpWeoxfsMdiA+mw1wgT3QeGTS0cNjg6qn7PZaUQvrJkrDr3rvCaQSM2Z2j9nY3EoPpJWyI+va0i0fFh38UzWLV9gzYhW90rHY6zrQLhnyr4IDjmxnd2Dcdnw43PKQrxSS1CotbStjKrGj1oe4kaD8lZ8XGz48aHEEIJOhpDzzllJySJmTHFR+OnHebSi+T3cMbOqPm5Dd3Fm6nyH0nKZaaotX0qaX9feXV6+MFavv0FfxqoQ3tu8G30NyAET/kOh+2NqXFanJoORn/xhTnULDwcS28KlTlDFQFcMPcDmoYtiHJWFVrV6XirTtNjMcxNKFgfV2tVwYRi0aU71RZ9P7IYV2tmUtUsvy6k/1qeutAy3sn6vN1ulmr5InZeetlXAjXpY4bu8LSGdWa68K2kaKFU4rd6j+ZLz0vyvjAf2kF88fx56bl48FMWxRvGe5cUcPYA0oF3scHbX633vP5KL5J0+9kWWn/4/IotXqcP2OgJQsj4sVALJOVxp4cAA6YCKoBD5FpYC9epirBLL6gq4kPZ+RYEcKLnAiBrFYngWr7RneqHktFcFAX1VqyZ6VY9oBwSB3aF4kRykE3gpiC1Wq00M1NqzVAc6PO89WeI419wi5QV5cvlKMcUlotlRa7fXAYV+e8QT3MZKv/bf2TxV/jyncV+vv0JV4iNPv/zfy3m8/U3/Z+R35ACEZKzivAdr3WLsI3v5u8iVDl1M3f8Tez4t4pw8afpfsD4Bbarc04RyyvnTxHYJxWRZPmEpPs/g+BfQcYKnz/7bZwoFJ9Vfj5I4fXd5z//o13/ebz5vPtMf9t4UXP28vrHiZQRH1PUULQS7E4yHwMItB/DfP7XSs+zMsl5ef3zRF5Y+fk8rnz7ZtgJLcY+x/x80M3HSs8LT4/XP1Pl53b7+ZBsP1+TLv/z85gV2vbS7Xk55+X1TxQh8/byDUgw+fmGdmLYjznf4OufdvPJeXn9Q2W3n9/Afsz0AHMDFbbPiaG1Izfw5uP1z1Ue7SdBf35N6H6+JdsJhNfJobUF0GeeHq9/sMLnk6QHHz5gbpAUdVN+dHqs5vPMm4/XP1rO8FrV3d0329UJofVvPrT2+nXlCK8pD/L2nuYG/xl/9f98UC73uYHXry3iSA8+f30nb+8+Wy6m6cG7d/LFX31u4PVrK8z/ZtWfmrK7+Nl8zsvrHy6wH4ul6LJebF7tzcfr1xakB5npP9Izu3xo7fUriEB4/bfrmZ9p7fVLCMu3rOUnu3n98sKZ1xnLh9Ze/wXS7Mebj5dXepH8b3+znuX9fAOvX0XhT0kP/Aptr/8KheW/FZ9nfrKb1y+l7Lsfv0Lb679GUnrgcwMvr8mE67Z9aO3l9f/Xfv7jJ7t5/Woif1964Onx+uX0t4TXfrKb1y+q/N+Dz3MfWnv9inrx09HxuYHXL6ufnx740Nrrl1X4N5Rvz+Z96eb1a+pn249foe31C+snh9d+hbbXLy0aXvvQ2svrB5V/7nMDL68fv+moD629vH5Q5Z/Fj78jvNevr/DFM9/5eHl5eXl5eXl5eXl5eXl5eXl5eXl5eXl5eXl5eXl5eXl5eXl5eXl5eXl5eXl5eXl5eXl5eXl5eXl5eXl5eXl5eXl5eXl5eXl5eXl5eXl5eXl5eXl5eXl5eXl5eXl5eXl5eXl5eXl5eXl5eXl5eXl5eXl5eXl5eXl5eXl5ef0U/R8TaIV6TfWRCQAAAABJRU5ErkJggg==;" parent="1" vertex="1">
                    <mxGeometry x="1374" y="425.75" width="123.29" height="35.5" as="geometry"/>
                </mxCell>
            </root>
        </mxGraphModel>
    </diagram>
</mxfile>